<svg xmlns="http://www.w3.org/2000/svg" viewBox="0 0 64 64">
  <rect width="64" height="64" rx="14" fill="#050a14"/>
  <path d="M8 38 C 18 26, 30 22, 44 26 C 50 28, 55 33, 56 40 C 50 39, 44 41, 38 44 C 30 48, 20 47, 12 44 C 9 43, 7 41, 8 38 Z"
        fill="#4dd0e1"/>
  <path d="M44 28 C 50 26, 55 27, 58 30 L 56 38 C 52 34, 48 31, 44 28 Z" fill="#4dd0e1" opacity="0.9"/>
  <circle cx="48" cy="33" r="1.6" fill="#050a14"/>
  <path d="M22 40 Q 26 32, 32 38" stroke="#90e0ef" stroke-width="1.4" fill="none" opacity="0.9"/>
</svg>
