<svg xmlns="http://www.w3.org/2000/svg" viewBox="0 0 160 160" fill="none">
  <title>Coexisting with Whales</title>
  <desc>A rising humpback whale with curved flukes and a long pectoral fin.</desc>
  <metadata>Silhouette reused from assets/whales/illustration-placeholder.svg. Source artwork is dedicated to CC0 1.0.</metadata>
  <defs>
    <linearGradient id="sea" x1="12" y1="8" x2="148" y2="152" gradientUnits="userSpaceOnUse"><stop stop-color="#102f3a"/><stop offset="1" stop-color="#06141b"/></linearGradient>
    <linearGradient id="whale" x1="25" y1="37" x2="131" y2="125" gradientUnits="userSpaceOnUse"><stop stop-color="#c8f5e9"/><stop offset=".65" stop-color="#7ce7d7"/><stop offset="1" stop-color="#3a9ca0"/></linearGradient>
  </defs>
  <path fill="url(#sea)" d="M0 0h160v160H0z"/>

  <path d="M21 47h24m70 0h24" stroke="#d3ad78" stroke-width="1" opacity=".8"/>
  <g transform="translate(-10 10) scale(1.5)">
    <path d="M19 56c1-16 18-26 39-24 12 1 22 6 29 16l10-4 9-14c2 15-1 22-10 28 5 10 4 19-2 27l-6-18-10-4c-9 9-20 13-32 12-17-1-28-8-27-19Z" fill="url(#whale)" stroke="#c8f5e9" stroke-width="1.05" stroke-linejoin="round"/>
    <path d="m47 67 7 16 13-14" fill="#438f96" stroke="#b8f0e4" stroke-width=".8" stroke-linejoin="round"/>
    <circle cx="32" cy="49" r="2" fill="#102e38"/>
    <circle cx="32.5" cy="48.5" r=".55" fill="#e4c28f"/>
  </g>
</svg>
